<?xml version="1.0" standalone="no"?>
<!DOCTYPE svg PUBLIC "-//W3C//DTD SVG 20010904//EN"
 "http://www.w3.org/TR/2001/REC-SVG-20010904/DTD/svg10.dtd">
<svg version="1.0" xmlns="http://www.w3.org/2000/svg"
 width="811.000000pt" height="811.000000pt" viewBox="0 0 811.000000 811.000000"
 preserveAspectRatio="xMidYMid meet">
<metadata>
Created by potrace 1.11, written by Peter Selinger 2001-2013
</metadata>
<g transform="translate(0.000000,811.000000) scale(0.100000,-0.100000)"
fill="#000000" stroke="none">
<path d="M4045 8098 c-3 -7 -24 -74 -48 -148 -24 -74 -65 -204 -92 -287 l-49
-153 -66 0 c-36 -1 -179 -1 -318 -1 -159 0 -252 -3 -250 -9 2 -6 93 -75 203
-155 110 -79 205 -148 210 -152 6 -5 29 -22 52 -38 45 -32 46 -40 16 -112 -9
-23 -20 -33 -36 -34 -43 -1 -103 -10 -187 -29 l-85 -18 -30 33 c-17 17 -40 35
-53 39 -27 9 -88 -10 -96 -29 -3 -8 -12 -15 -21 -15 -30 0 -96 -41 -105 -65
-6 -15 -18 -25 -29 -25 -20 0 -35 -25 -25 -41 3 -5 -2 -9 -11 -9 -8 0 -23 15
-31 34 -31 64 -106 84 -174 46 -19 -10 -56 -29 -81 -41 -29 -14 -56 -36 -70
-59 -18 -28 -29 -35 -45 -32 -26 5 -34 -18 -23 -60 4 -16 4 -28 -2 -28 -5 0
-9 4 -9 8 0 14 -48 32 -83 32 -18 0 -43 -7 -55 -16 -13 -9 -37 -18 -55 -21
-50 -8 -88 -32 -100 -63 -7 -20 -21 -31 -48 -39 -52 -16 -64 -33 -39 -56 28
-25 25 -32 -18 -39 -21 -3 -65 -19 -97 -35 -146 -73 -238 -228 -212 -356 6
-26 0 -37 -43 -83 -46 -49 -50 -51 -60 -32 -15 28 -62 50 -109 50 -33 0 -47
-7 -76 -35 -19 -20 -35 -45 -35 -55 0 -11 -7 -20 -15 -20 -17 0 -57 -59 -49
-72 3 -4 -6 -12 -19 -17 -22 -8 -37 -29 -37 -50 0 -4 25 -36 55 -71 30 -35 55
-67 55 -71 0 -5 -12 -29 -27 -54 -26 -42 -31 -45 -70 -45 -52 0 -95 -33 -122
-96 -11 -25 -27 -51 -36 -60 -8 -8 -18 -27 -21 -42 -4 -15 -15 -34 -25 -42
-18 -15 -18 -16 4 -40 12 -14 31 -30 42 -36 29 -17 24 -32 -33 -111 -105 -144
-153 -276 -154 -423 0 -52 4 -107 10 -121 15 -38 -9 -196 -29 -190 -8 3 -33 6
-56 7 -71 3 -117 -62 -108 -153 3 -26 7 -69 9 -95 2 -26 10 -58 18 -70 14 -21
14 -26 0 -46 -13 -20 -13 -24 3 -42 20 -22 89 -44 111 -36 20 8 21 2 28 -119
l6 -110 -29 -17 c-41 -23 -64 -71 -57 -117 4 -20 6 -59 6 -87 -1 -41 4 -57 25
-82 14 -16 25 -37 25 -46 0 -16 15 -25 74 -42 24 -7 32 -18 42 -54 7 -25 16
-56 20 -69 7 -23 6 -23 -45 -18 l-53 6 6 -53 c26 -255 129 -450 296 -561 37
-25 72 -45 77 -45 5 0 34 -40 64 -88 44 -70 54 -93 48 -113 -11 -45 12 -83
121 -195 11 -12 20 -26 20 -32 0 -6 4 -23 10 -37 9 -25 11 -25 32 -11 12 9 29
16 38 16 23 -1 99 -93 105 -129 8 -44 25 -67 94 -126 34 -29 66 -66 75 -87 9
-21 18 -38 21 -38 3 0 19 10 35 22 l29 21 34 -26 c19 -14 44 -42 55 -62 l21
-35 -40 0 c-54 0 -114 -34 -131 -74 -14 -35 -14 -127 1 -184 6 -20 12 -48 14
-62 3 -14 10 -45 17 -70 7 -25 14 -52 15 -60 2 -8 8 -37 15 -65 25 -110 15
-189 -51 -394 -67 -212 -47 -293 80 -324 49 -11 51 -13 49 -43 -2 -37 13 -60
46 -68 17 -4 23 -13 24 -33 3 -58 19 -95 49 -117 36 -27 149 -29 167 -3 7 9
24 16 37 15 13 -1 46 10 74 25 61 33 85 35 78 7 -3 -11 -2 -35 1 -54 8 -43 34
-53 77 -31 29 16 35 16 85 0 44 -14 60 -15 89 -5 61 20 88 85 60 144 -16 32
-21 36 -57 36 -79 0 -114 36 -127 131 l-7 56 60 -49 c144 -117 351 -237 511
-297 33 -13 69 -27 80 -31 39 -16 182 -50 280 -66 110 -18 346 -25 440 -13
116 14 160 20 177 25 10 3 30 7 45 10 70 12 267 81 372 130 106 50 298 170
363 226 82 71 83 71 73 5 -13 -86 -55 -127 -130 -127 -95 0 -82 -164 14 -183
17 -4 53 1 81 9 47 14 55 14 85 0 18 -9 37 -16 43 -16 19 0 33 29 34 74 1 55
13 58 73 21 22 -14 54 -25 72 -25 20 0 36 -7 42 -17 7 -13 23 -17 74 -17 90
-1 117 19 137 102 12 51 19 63 41 71 27 9 48 59 34 81 -7 11 5 17 47 24 41 7
83 35 104 70 29 48 23 131 -20 261 -75 224 -78 282 -31 475 59 240 66 302 40
361 -10 21 -16 41 -14 42 2 2 19 15 36 29 l33 26 -43 7 c-64 10 -138 36 -131
46 3 5 17 7 32 4 125 -24 223 9 326 110 l71 70 -65 6 c-40 3 -52 7 -32 9 35 3
38 3 67 14 59 21 97 48 160 111 l70 70 -94 7 c-52 4 -95 9 -97 10 -1 2 10 17
26 34 21 24 38 33 71 36 24 3 64 14 89 25 46 20 140 103 140 122 0 6 4 11 8
11 8 0 52 71 52 84 0 4 -5 4 -11 0 -6 -3 -43 -8 -82 -10 l-72 -3 54 10 c110
19 199 95 263 225 l25 51 -36 -9 c-20 -5 -52 -11 -71 -14 -19 -3 -40 -7 -46
-9 -6 -2 -17 1 -24 5 -10 6 -6 10 16 15 96 22 169 72 220 150 19 29 74 158 70
162 -1 2 -27 -6 -57 -16 -30 -11 -72 -22 -94 -25 -38 -6 -38 -6 16 16 107 44
167 112 208 235 32 95 31 97 -41 64 -35 -15 -76 -31 -92 -35 -26 -6 -28 -5
-22 16 3 13 6 25 6 28 0 4 16 12 36 19 96 35 165 140 190 291 3 19 7 37 7 40
5 15 -26 5 -90 -28 -39 -20 -74 -34 -78 -31 -11 11 8 40 35 54 92 48 150 153
158 288 2 48 2 87 -2 87 -4 0 -30 -18 -58 -41 -28 -22 -63 -46 -78 -54 -27
-14 -27 -14 -24 18 3 19 15 42 32 57 48 44 62 66 83 125 19 53 25 143 15 215
-2 14 -4 31 -5 39 -1 11 -5 10 -21 -4 -11 -10 -20 -13 -20 -7 0 6 4 13 9 17 9
5 26 99 25 140 -1 56 -30 204 -33 169 -1 -6 -10 -22 -22 -35 -12 -13 -35 -40
-51 -59 -33 -38 -28 -24 8 25 46 62 58 187 30 294 -21 77 -29 80 -64 24 -27
-44 -77 -103 -87 -103 -11 0 6 50 28 83 61 90 56 233 -12 365 l-19 37 -11 -29
c-16 -40 -74 -135 -84 -136 -4 0 -12 11 -17 25 -7 20 -5 41 10 85 22 66 27
117 15 170 -8 39 -56 139 -88 184 l-20 28 -23 -72 c-12 -40 -28 -78 -34 -84
-8 -8 -8 -3 0 19 40 104 24 220 -44 320 -44 64 -66 87 -70 73 -2 -7 -12 -43
-22 -80 -9 -38 -21 -68 -26 -68 -6 0 -6 13 -1 33 4 17 7 60 7 95 -1 77 -40
160 -113 241 l-48 54 -12 -78 c-14 -96 -20 -106 -17 -28 4 68 -21 149 -61 202
-27 35 -125 133 -128 128 -2 -2 -14 -156 -15 -179 0 -5 -4 -8 -9 -8 -6 0 -8
26 -7 57 6 107 -30 190 -115 267 -32 28 -70 58 -86 68 l-28 16 3 -104 c2 -57
1 -104 -3 -104 -18 0 -33 32 -39 84 -7 72 -50 150 -107 197 -50 41 -145 99
-152 92 -3 -2 -1 -18 3 -34 5 -16 12 -58 15 -92 8 -74 -5 -67 -31 17 -22 72
-92 148 -175 188 -94 45 -99 45 -79 -8 6 -14 14 -44 19 -65 8 -33 6 -39 -8
-39 -10 0 -17 9 -18 21 -3 31 -48 103 -88 138 -35 30 -127 81 -172 95 l-22 7
20 -55 c10 -31 19 -66 19 -79 l0 -24 -58 21 c-31 11 -73 31 -92 43 -88 54
-245 88 -279 60 -12 -10 -13 -9 -6 3 6 12 5 12 -5 3 -8 -7 -21 -8 -34 -4 -23
9 -135 25 -152 23 -9 -2 -44 80 -44 105 0 9 89 79 230 178 194 138 277 201
271 208 -4 4 -75 8 -157 7 -325 -1 -468 1 -473 5 -2 3 -26 72 -52 153 -27 81
-70 213 -96 295 -45 139 -58 163 -68 135z m-1745 -1628 c0 -5 -4 -10 -10 -10
-5 0 -10 5 -10 10 0 6 5 10 10 10 6 0 10 -4 10 -10z"/>
</g>
</svg>
